<svg xmlns="http://www.w3.org/2000/svg" xmlns:xlink="http://www.w3.org/1999/xlink" viewBox="0 0 150 150"><defs><style>.cls-1,.cls-7{fill:#fff;}.cls-1{opacity:0;}.cls-2{fill:#ee162d;}.cls-3{opacity:0.32;fill:url(#Gradiente_sem_nome_4);}.cls-3,.cls-4,.cls-5,.cls-6{isolation:isolate;}.cls-4{opacity:0.35;fill:url(#Gradiente_sem_nome_4-2);}.cls-5{opacity:0.53;fill:url(#Gradiente_sem_nome_4-3);}.cls-6{opacity:0.51;fill:url(#Gradiente_sem_nome_4-4);}.cls-7{fill-rule:evenodd;}</style><linearGradient id="Gradiente_sem_nome_4" x1="184.47" y1="128.15" x2="184.47" y2="95.18" gradientTransform="matrix(2.99, 0, 0, -2.99, -473.2, 406.47)" gradientUnits="userSpaceOnUse"><stop offset="0"/><stop offset="1" stop-opacity="0"/></linearGradient><linearGradient id="Gradiente_sem_nome_4-2" x1="181.7" y1="97.48" x2="181.7" y2="123.77" xlink:href="#Gradiente_sem_nome_4"/><linearGradient id="Gradiente_sem_nome_4-3" x1="185.04" y1="120.5" x2="185.04" y2="100.9" xlink:href="#Gradiente_sem_nome_4"/><linearGradient id="Gradiente_sem_nome_4-4" x1="181.12" y1="100.82" x2="181.12" y2="122.65" xlink:href="#Gradiente_sem_nome_4"/></defs><title>edp</title><g id="Camada_2" data-name="Camada 2"><g id="Camada_9" data-name="Camada 9"><rect class="cls-1" width="150" height="150"/></g><g id="Camada_3" data-name="Camada 3"><g id="layer1"><g id="g952"><g id="g941"><path id="path861" class="cls-2" d="M62,27A48,48,0,0,0,14,75h0a48,48,0,0,0,48,48h0a47.76,47.76,0,0,0,13.08-1.83A47.83,47.83,0,0,0,136,75h0A48,48,0,0,0,88,27h0a47.76,47.76,0,0,0-13.08,1.83A47.78,47.78,0,0,0,62,27Z"/><g id="g910"><circle id="path869" class="cls-3" cx="79.16" cy="75" r="38.89"/><circle id="circle871" class="cls-4" cx="70.87" cy="75" r="38.89"/></g><g id="g932"><circle id="circle878" class="cls-5" cx="80.87" cy="74.88" r="29"/><circle id="circle880" class="cls-6" cx="69.13" cy="75.12" r="29"/></g></g><path id="path852" class="cls-7" d="M82,55a2.31,2.31,0,0,0-2.36,1.49l-.83,6.85c-6-1.8-9.76,2-10.56,8.31l-7.88,8.69c-1.54,1.38-5.29,2.55-6,.06l7-5.06c1.43-1.25,2.85-2.63,3.27-4.46,1-3.81-.32-5.33-2.16-6.84-1.42-1.2-4.91-1.64-7.73-.26a7.47,7.47,0,0,0-3.85,4.94l-1.18,9.4c-3.62,1.79-2.9,5.59.44,5,1.13,2.28,3.38,3.43,6.26,3.43,4.14,0,7.55-2.65,10.83-7.3-.66,5.25,3.08,7.3,6.58,7.3A10.42,10.42,0,0,0,81,83.33L85.71,79,84,92.25A2.42,2.42,0,0,0,86.24,95a2.37,2.37,0,0,0,2.51-2.37l.83-6.52a7,7,0,0,0,5.48,0l6.35-2.74a2.19,2.19,0,0,0,1.24-2.15,2.48,2.48,0,0,0-2.7-2.42l1-8.16C101.6,65.8,98,63,94.8,63c-4.6,0-7.51,3.47-8.14,8.44l-4.8,5L84.3,57.11c.13-1-1.16-2.1-2.3-2.1ZM58.41,67.21c2.53,0,2.64,2.44,1,4.05l-4.63,3.37c.61-6.25,1.32-7.42,3.68-7.42Zm17.42,0c1.51,0,2.35.6,2.17,2.33l-1.35,9.93h0a2.54,2.54,0,0,1-2.45,2.33c-1.52,0-2.36-.6-2.18-2.33l1.27-9.93a2.61,2.61,0,0,1,2.54-2.33Zm18.46,0c1.52,0,2.36.6,2.18,2.33l-1.35,9.93h0a2.54,2.54,0,0,1-2.45,2.33c-1.52,0-2.36-.6-2.18-2.33l1.27-9.93a2.6,2.6,0,0,1,2.53-2.33Z"/></g></g></g></g></svg>