<svg xmlns="http://www.w3.org/2000/svg" viewBox="0 0 150 150"><defs><style>.cls-1{fill:#fff;opacity:0;}.cls-2{fill:#00263d;}</style></defs><title>oceaneering</title><g id="Camada_2" data-name="Camada 2"><g id="Camada_9" data-name="Camada 9"><rect class="cls-1" width="150" height="150"/></g><g id="Camada_2-2" data-name="Camada 2"><path class="cls-2" d="M137.16,56.74H12.84C5.79,56.74,0,64.91,0,75S5.79,93.26,12.84,93.26H137.16C144.29,93.26,150,85.09,150,75s-5.79-18.26-12.84-18.26Zm0,32.73H12.84c-5.12,0-9.28-6.45-9.28-14.4S7.72,60.6,12.84,60.6H137.16c5.12,0,9.28,6.46,9.28,14.4s-4.16,14.47-9.28,14.47Z"/><path class="cls-2" d="M10.76,75.07c0,5.35,2.15,8.76,6.46,8.76s6.46-3.49,6.46-8.76-2.16-8.75-6.46-8.75S10.76,69.8,10.76,75.07Zm3.71,0c0-4,.89-5.49,2.75-5.49S20,71.07,20,75.07s-.9,5.5-2.75,5.5-2.75-1.49-2.75-5.5Zm22.64-1.7c.07-3.94-2.08-7.05-6.31-7.05-3.78,0-6.31,2.89-6.31,8.75S27,83.83,30.8,83.83c4.08,0,6.31-3,6.31-6.9H33.47c-.07,1.93-.52,3.71-2.37,3.71-1.63,0-2.9-1.48-2.9-5.49s1.27-5.49,2.9-5.49c1.33,0,2.23.66,2.37,3.71Zm19.37,3.78h-2.3l1.11-5.49h.08ZM57,66.69H53.51l-5,17h3.86l.89-3.26h4.23l1,3.26h3.86Zm14.25,0v8.83l-4.67-8.83H63.24v17h3.11v-9.5l5.05,9.5h3v-17m48.39,0v8.83l-4.67-8.83h-3.34v17h3.11v-9.5l5,9.5h3v-17m-30,17V80.42H90.77V76.48h5.12V73.22H90.77V70.1h5.12V66.69H87.06v17ZM101,70h1.19c1.49,0,2.3.75,2.3,2.08s-.81,2.08-2.3,2.08H101V70ZM97.45,83.68H101v-6.6h.08l3.78,6.6H109l-4.23-6.82c2.52-.38,3.48-2.75,3.48-4.68,0-3-2-5.49-5-5.49H97.53l-.08,17ZM140,72.62c-.22-3.85-2.67-6.3-6.38-6.3s-6.39,2.89-6.39,8.75,2.53,8.76,6.39,8.76A6,6,0,0,0,140,77.6V74.26h-6.75v3.26h3c0,1.34-.59,3-2.67,3-1.41,0-2.67-1.49-2.67-5.5s1.26-5.49,2.67-5.49c1.78,0,2.67,1.34,2.67,3ZM85.21,83.68V80.42h-5V76.48h5.12V73.22H80.16V70.1h5.12V66.69H76.45v17Zm-37.63,0V80.42H42.45V76.48h5.13V73.22H42.45V70.1h5.13V66.69H38.74v17Zm65.75,0h-3.41v-17h3.41"/></g></g></svg>