<svg xmlns="http://www.w3.org/2000/svg" viewBox="0 0 150 150"><defs><style>.cls-1{fill:#fff;opacity:0;}.cls-2{fill:#0e070d;}.cls-3{fill:#898a8c;}</style></defs><title>prysmian</title><g id="Camada_2" data-name="Camada 2"><g id="Camada_9" data-name="Camada 9"><rect class="cls-1" width="150" height="150"/></g><g id="Camada_1-2" data-name="Camada 1"><path id="path8053" class="cls-2" d="M131.9,63c0-3.5-.12-6.75-.32-9.76a22.27,22.27,0,0,0,2.83.16,20.73,20.73,0,0,0,2.75-.16V56a7.55,7.55,0,0,1,6.32-3.26,6.24,6.24,0,0,1,4.84,2c1.23,1.42,1.28,3.33,1.28,5.94,0,1.1,0,2.8,0,5.08s.09,4.64.29,6.88a26.4,26.4,0,0,0-3.08-.2,25.69,25.69,0,0,0-3,.2c.2-2.2.32-5.37.32-9.48,0-4.8-.28-7-3.28-7-2.67,0-3.49,2.2-3.49,6.71,0,2.28.08,5.54.29,9.77a25.19,25.19,0,0,0-3-.2,24.48,24.48,0,0,0-3,.2c.2-3.34.32-6.55.32-9.73m-15,4c0,2.32.86,3.5,2.54,3.5s2.83-1.26,2.83-3.78V62c-3.73.73-5.37,2.16-5.37,5Zm0,6.19c-3.45,0-5.54-2.16-5.54-5.66,0-2.6,1.39-4.19,4.31-5.16,2.54-.86,4.84-1.31,6.48-2.41a4.17,4.17,0,0,0,0-.69,3.72,3.72,0,0,0-3.9-4c-1.84,0-3.32,1-4.6,3.14-.24-.78-.53-1.67-.9-2.61a10.9,10.9,0,0,1,7.31-3.09c4.92,0,7.63,2.32,7.63,6.51v.2l-.12,7.08v.78c0,2.89.29,3.91,2.71,3.91h.12v1a11.73,11.73,0,0,1-4.31.9,3.48,3.48,0,0,1-3.69-2.93,6.18,6.18,0,0,1-5.54,3M103.18,63c0-3.5-.12-6.75-.33-9.76a26.48,26.48,0,0,0,3.08.16,25.7,25.7,0,0,0,3.08-.16c-.21,3-.33,6.26-.33,9.76,0,3.18.12,6.39.33,9.73a25.57,25.57,0,0,0-3.08-.2,26.54,26.54,0,0,0-3.08.2C103.06,69.34,103.18,66.13,103.18,63ZM106,44.29a3.07,3.07,0,1,1,0,6.14,3,3,0,0,1-3.08-3A3.07,3.07,0,0,1,106,44.29M69.86,62.91c0-2.15-.09-5.37-.25-9.72a23.44,23.44,0,0,0,2.87.16,21.46,21.46,0,0,0,2.83-.16v2.73a7.18,7.18,0,0,1,6-3.14,5.65,5.65,0,0,1,5.7,3.79,7.21,7.21,0,0,1,6.53-3.79,6,6,0,0,1,4.72,1.95c1.47,1.71,1.51,4.28,1.51,8v2.52c0,2.53.09,5,.21,7.41a27.82,27.82,0,0,0-3.12-.2,24.34,24.34,0,0,0-3,.2c.24-3.5.36-6.51.36-9.16,0-5-.32-7.36-3.28-7.36-2.71,0-3.36,2.16-3.36,6.39V69c0,1,.08,2.32.16,3.7a26.54,26.54,0,0,0-3.08-.2,26,26,0,0,0-3,.2c.25-3.46.33-6.27.33-8.46,0-5.46-.12-8.06-3.28-8.06-2.71,0-3.32,2.2-3.32,6.39V69c0,1,.08,2.32.16,3.7a23.34,23.34,0,0,0-3-.2,25.59,25.59,0,0,0-3,.2c.16-4.4.25-7.69.25-9.77m-15.11,4.2c.9,2.68,2.87,4.19,5.3,4.19,2,0,3.07-1,3.07-2.73s-1.76-2.36-4.8-3.62c-3.32-1.39-5-2.73-5-5.58,0-3.9,2.87-6.63,7.51-6.63a11,11,0,0,1,5.91,1.71,15.43,15.43,0,0,0-1.19,3.83h-.41c-1.19-2.49-2.79-3.75-4.85-3.75a2.67,2.67,0,0,0-2.95,2.53c0,1.58,1.19,2.11,3.49,3,4.31,1.66,6.69,2.6,6.69,6.22,0,4.07-3.08,6.92-7.8,6.92a10.66,10.66,0,0,1-6.12-1.59c.13-.81.29-2.32.54-4.51h.57M42.09,72.52,33.78,53.19a32.08,32.08,0,0,0,6.4,0c1.4,4.11,3,8.3,4.89,12.57l4.76-12.57a8.22,8.22,0,0,0,1.68.16,7.72,7.72,0,0,0,1.68-.16Q45.87,69.24,40.1,83.79a11.61,11.61,0,0,0-1.72-.12,16.64,16.64,0,0,0-1.93.12,45.44,45.44,0,0,0,2.67-4.88l3-6.39M20.77,62.91c0-3.78,0-7-.29-9.72a22.75,22.75,0,0,0,2.88.16,22.38,22.38,0,0,0,2.83-.16C26.07,55.3,26,57.05,26,58.4h.21c1-3.75,3.16-5.7,6.32-5.7h.2a18.1,18.1,0,0,0-.24,2.93,19.59,19.59,0,0,0,.24,3,8.12,8.12,0,0,0-2.66-.61c-2.79,0-3.86,1.87-3.86,5.78,0,3.58.16,6.55.37,8.83a25.3,25.3,0,0,0-3-.2,26,26,0,0,0-3,.2c.21-2.89.29-6.14.29-9.77M12.52,52.37c0-3.54-1.52-5.25-4.64-5.25-.41,0-.82.05-1.27.09a40.16,40.16,0,0,0-.29,4.51v6.72c4.39,0,6.2-1.75,6.2-6.07ZM.49,58.8C.49,53.72.37,49,0,44.89a26.43,26.43,0,0,0,2.87.16c1.89,0,4.15-.2,6.82-.2C16,44.85,19,47,19,52.17c0,5.78-3.69,8.51-11.28,8.51-.46,0-.91,0-1.36,0v6c0,.77.17,2.8.45,6.06a33.06,33.06,0,0,0-3.44-.2,31.12,31.12,0,0,0-3.37.2c.41-4.4.49-9,.49-13.88"/><path id="path8073" class="cls-3" d="M142.48,83.17c-2.63,0-4.3,2.26-4.3,6.27s1.67,6.43,4.3,6.43,4.24-2.32,4.24-6.37S145.09,83.17,142.48,83.17Zm-6.9,13.66c0-7.29-.07-12.29-.19-15.06a9.75,9.75,0,0,0,3.05,0c-.13,1-.19,1.84-.23,2.8a5.53,5.53,0,0,1,5.27-3.19c4,0,6.52,3,6.52,8.09,0,4.91-2.63,7.93-6.46,7.93a5.39,5.39,0,0,1-5.17-2.71v4.65a63.13,63.13,0,0,0,.2,6.37,9.41,9.41,0,0,0-1.58-.16,9.64,9.64,0,0,0-1.6.16c.19-3.15.19-6.11.19-8.88m-2.8-5.89A54.7,54.7,0,0,0,133,97a7.91,7.91,0,0,0-1.51-.16A8.14,8.14,0,0,0,130,97c0-.86.1-1.78.13-2.74a5.85,5.85,0,0,1-5.27,3.12c-3.59,0-5.14-1.88-5.14-5.76V87.12c0-1.5,0-3.28-.12-5.35a9.58,9.58,0,0,0,1.6.12,9.46,9.46,0,0,0,1.61-.12c-.23,4.71-.29,7.89-.29,9.49,0,2.83,1.06,4.17,3.47,4.17,2.95,0,4.08-2.1,4.08-6.37,0-2.49-.07-4.94-.16-7.29a9.46,9.46,0,0,0,1.57.12,9.23,9.23,0,0,0,1.57-.12c-.19,2-.22,5.06-.22,9.17m-22.9-8.38c-2.86,0-4.63,2.45-4.63,6.85s1.8,6.81,4.63,6.81,4.56-2.45,4.56-6.81S112.71,82.56,109.88,82.56Zm0,14.84c-4.92,0-7.9-3-7.9-8s3.11-8,7.9-8,7.9,3.06,7.9,8-3.12,8-7.9,8m-17-10.47a36.42,36.42,0,0,0-.26-5.16,10.89,10.89,0,0,0,1.7.12,10.55,10.55,0,0,0,1.68-.12,17.4,17.4,0,0,0-.26,2.83V85c1.25-2.42,2.86-3.56,5-3.56a6.44,6.44,0,0,1,.74,0,10.45,10.45,0,0,0-.13,1.49,12.45,12.45,0,0,0,.13,1.57,9.71,9.71,0,0,0-2.15-.35,3.38,3.38,0,0,0-2.51,1.08,5.12,5.12,0,0,0-1.19,3.88v3.31c0,1.31.07,2.84.2,4.59a9.2,9.2,0,0,0-1.64-.16,8.79,8.79,0,0,0-1.61.16,99.38,99.38,0,0,0,.26-10.09M81.46,97.46c-7.71,0-12.14-4.2-12.14-11.36,0-6.82,4.82-11.24,12.46-11.24A16.65,16.65,0,0,1,90,76.77a6.57,6.57,0,0,0-.83,3h-.51a8,8,0,0,0-7.1-3.6c-5.11,0-8.64,3.79-8.64,9.75,0,6.33,3.31,10.06,8.83,10.06a11.67,11.67,0,0,0,5-1.15c.07-1,.1-2.07.1-3.12a43.84,43.84,0,0,0-.22-4.55,10.75,10.75,0,0,0,1.7.16,10.41,10.41,0,0,0,1.92-.19c-.09,1.56-.16,3.09-.16,4.58s.07,3,.16,4.46a33.54,33.54,0,0,1-8.83,1.27"/></g></g></svg>