<svg xmlns="http://www.w3.org/2000/svg" viewBox="0 0 150 150"><defs><style>.cls-1{fill:#fff;opacity:0;}.cls-2{fill:#005da4;}</style></defs><title>weg</title><g id="Camada_2" data-name="Camada 2"><g id="Camada_9" data-name="Camada 9"><rect class="cls-1" width="150" height="150"/></g><g id="Camada_4" data-name="Camada 4"><g id="layer1"><polygon id="polygon3378" class="cls-2" points="24.39 39.24 24 39.24 24 95.69 63.86 95.69 63.86 55.09 54.69 55.09 54.69 86.41 48.52 86.41 48.52 54.71 39.35 54.71 39.35 86.41 33.57 86.41 33.57 48.52 126 48.52 126 39.24 24.39 39.24"/><path id="polygon3380" class="cls-2" d="M101.38,55.09v40.6h15v6.57H24v8.5H126V55.09H101.38Zm9.22,9.67h5.8v22h-5.8Z"/><path id="polygon3384" class="cls-2" d="M69.82,55.09v40.6H95.6v-8.9H79V80.61H96V55.09ZM79,64.37h7.32v7.36H79Z"/></g></g></g></svg>