<?xml version="1.0" encoding="utf-8"?>
<!-- Generator: Adobe Illustrator 16.0.0, SVG Export Plug-In . SVG Version: 6.00 Build 0)  -->
<!DOCTYPE svg PUBLIC "-//W3C//DTD SVG 1.1//EN" "http://www.w3.org/Graphics/SVG/1.1/DTD/svg11.dtd">
<svg version="1.1" id="Layer_1" xmlns="http://www.w3.org/2000/svg" xmlns:xlink="http://www.w3.org/1999/xlink" x="0px" y="0px"
	 width="1000px" height="210px" viewBox="-0.001 0.001 1000 210" enable-background="new -0.001 0.001 1000 210"
	 xml:space="preserve">
<path fill="#5C2D91" d="M896.447,82.854c2.104,2.478,3.776,7.858,5.016,16.142c1.242,8.287,2.25,17.094,3.013,26.428
	c0.192,2.86,0.385,5.619,0.576,8.288c0.191,2.668,0.379,5.235,0.57,7.712c2.295-2.859,4.976-6.046,8.038-9.57
	c3.06-3.524,6.213-7.094,9.463-10.721c0.38-0.371,0.814-0.855,1.289-1.419c0.48-0.573,0.91-1.046,1.294-1.43
	c3.821-4.194,7.508-8.192,11.04-12.005c3.539-3.81,6.553-6.952,9.039-9.424c0.955-0.951,2.008-1.954,3.154-3.006
	c1.146-1.042,2.295-2.14,3.442-3.282c2.103-1.711,4.257-3.377,6.455-5s4.354-2.905,6.456-3.856c1.146-0.383,2.243-0.716,3.296-1.002
	c1.057-0.282,2.057-0.428,3.013-0.428c2.103,0,3.872,0.383,5.308,1.143c1.432,0.766,2.821,1.622,4.16,2.573
	c3.443,3.62,6.219,10.758,8.321,21.428c2.103,10.664,3.917,22.004,5.449,33.995c1.142,9.143,2.103,18.004,2.865,26.573
	c0.77,8.569,1.531,15.618,2.295,21.147l-33.561,22.285c-0.192-1.342-0.339-2.806-0.436-4.427c-0.091-1.622-0.231-3.289-0.425-5
	c-0.385-3.435-0.718-7.004-1.006-10.72c-0.289-3.717-0.622-7.387-1.007-11.002c-0.955-10.28-2.244-19.953-3.872-28.995
	c-1.622-9.053-3.968-14.998-7.026-17.858c-0.961-0.956-2.152-1.858-3.584-2.714c-1.436-0.855-3.204-1.283-5.308-1.283
	c-0.955,0-2.013,0.135-3.16,0.428c-1.142,0.281-2.289,0.709-3.437,1.283c-1.916,0.766-3.731,1.758-5.449,2.996
	c-1.725,1.238-3.353,2.534-4.879,3.862c-0.384,0.382-0.718,0.709-1.006,1.002c-0.288,0.28-0.622,0.62-1.001,1.002
	c-3.256,3.23-6.937,7.229-11.045,11.992c-4.115,4.763-8.275,10.382-12.481,16.855c-3.827,5.912-7.603,12.478-11.328,19.717
	c-3.729,7.24-7.128,15.045-10.187,23.433h-7.744v-13.14c-0.192-4.584-0.385-9.246-0.576-14.008
	c-0.192-4.765-0.379-9.426-0.571-13.998c-0.385-13.14-1.006-24.715-1.864-34.714c-0.859-10-2.917-16.621-6.167-19.857
	c-0.192-0.191-0.334-0.332-0.431-0.428s-0.237-0.141-0.43-0.141c-0.764-0.574-1.532-1.047-2.295-1.43
	c-0.771-0.383-1.725-0.569-2.866-0.569c-0.961,0-2.013,0.187-3.16,0.569c-1.146,0.382-2.386,0.76-3.726,1.143
	c-0.576,0.383-1.152,0.664-1.724,0.855c-0.576,0.191-1.147,0.48-1.72,0.861l-2.301-5.434c11.481-8.377,20.989-15.381,28.547-21
	c7.552-5.619,13.144-8.429,16.777-8.429c1.532,0,2.821,0.288,3.878,0.856c1.052,0.575,2.052,1.239,3.013,1.999v-0.281H896.447z
	 M832.187,50.284c-0.955,0.76-1.859,1.476-2.725,2.14c-0.859,0.67-1.771,1.284-2.726,1.864c-3.635,2.854-6.98,5.523-10.045,7.995
	c-3.053,2.479-6.021,4.476-8.892,6.002c-1.334,0.76-2.726,1.329-4.155,1.717c-1.437,0.377-2.916,0.568-4.448,0.568
	c-2.103,0-4.063-0.377-5.879-1.143c-1.814-0.766-3.493-1.717-5.025-2.86c-0.379-0.191-0.712-0.428-1.001-0.715
	c-0.288-0.287-0.62-0.518-1.006-0.715c-0.955-0.76-1.858-1.711-2.725-2.854c-0.859-1.143-1.578-2.381-2.148-3.71
	c-0.57-0.766-1.051-1.526-1.436-2.292c-0.379-0.76-0.674-1.431-0.859-1.993l31.267-23.146c0.385,0.952,0.864,1.903,1.436,2.854
	c0.571,0.952,1.244,1.999,2.007,3.147c0.386,0.377,0.719,0.76,1.007,1.137c0.288,0.383,0.616,0.766,1,1.143
	c0.577,0.766,1.153,1.43,1.726,2.004c0.57,0.568,1.051,1.143,1.436,1.711c1.72,1.717,3.727,3.288,6.021,4.718
	c2.301,1.424,4.686,2.331,7.173,2.708v-0.28H832.187z M827.021,186.849l-37.292,22.578c0-1.521,0.051-3.673,0.147-6.432
	c0.096-2.76,0.141-5.573,0.141-8.422c0-0.192,0-0.385,0-0.575s0-0.28,0-0.28c0-2.861,0.046-5.632,0.142-8.3
	c0.103-2.657,0.147-4.942,0.147-6.847v-12.004c0-2.668-0.046-5.719-0.147-9.144c-0.096-3.435-0.236-6.856-0.43-10.28
	c-0.187-7.431-0.712-14.333-1.577-20.718c-0.859-6.385-2.146-10.427-3.872-12.145c-0.379-0.76-1.146-1.43-2.295-1.998
	c-1.143-0.569-2.488-0.862-4.014-0.862c-0.57,0-1.25,0.052-2.014,0.147c-0.758,0.095-1.525,0.236-2.289,0.427
	c-0.955,0.383-1.961,0.761-3.014,1.144c-1.051,0.383-1.865,0.76-2.441,1.143l-0.859-6.289c2.488-1.329,5.213-3.091,8.176-5.281
	c2.967-2.19,5.98-4.425,9.038-6.717c0.385-0.377,0.764-0.715,1.147-0.997c0.385-0.287,0.77-0.523,1.146-0.715
	c5.354-3.812,10.379-7.189,15.065-10.139c4.681-2.956,8.264-4.431,10.751-4.431c1.725,0,3.251,0.282,4.591,0.856
	c1.339,0.568,2.486,1.239,3.441,1.998c1.725,1.903,3.014,8.097,3.872,18.575c0.864,10.478,1.48,21.805,1.865,34
	c0.192,6.665,0.333,13.185,0.431,19.568c0.096,6.374,0.142,12.05,0.142,17.004L827.021,186.849L827.021,186.849z M572.575,143.136
	c2.295-2.478,4.97-5.472,8.032-8.997c3.059-3.523,6.219-7.193,9.463-11c0.385-0.191,0.725-0.473,1.007-0.855
	c0.288-0.383,0.531-0.665,0.719-0.855c3.825-4.381,7.507-8.525,11.045-12.433c3.539-3.901,6.552-6.998,9.039-9.284
	c0.955-0.952,2.103-2.044,3.437-3.288c1.34-1.239,2.68-2.427,4.021-3.57c1.146-1.143,2.391-2.19,3.729-3.141
	c1.34-0.952,2.674-1.909,4.014-2.854c2.487-1.717,4.88-3.102,7.175-4.149c2.289-1.042,4.302-1.571,6.024-1.571
	c1.143,0,2.244,0.242,3.296,0.715c1.053,0.479,2.059,1.002,3.014,1.577c0.191,0.186,0.43,0.377,0.712,0.569
	c0.289,0.191,0.531,0.383,0.719,0.568c2.492,2.669,4.493,7.003,6.025,13c1.531,6.002,2.68,12.336,3.441,19.006
	c0.77,5.326,1.34,10.429,1.726,15.281c0.379,4.854,0.667,8.907,0.858,12.138c2.104-2.465,4.493-5.325,7.173-8.568
	c2.675-3.231,5.449-6.476,8.315-9.706c0.385-0.383,0.718-0.766,1-1.148c0.294-0.383,0.628-0.756,1.007-1.148
	c3.442-3.998,6.794-7.805,10.045-11.424c3.25-3.62,6.021-6.569,8.315-8.856c1.34-1.334,2.819-2.764,4.447-4.284
	c1.622-1.526,3.297-3.046,5.021-4.572c1.334-1.334,2.725-2.618,4.161-3.856c1.436-1.239,2.916-2.427,4.441-3.57
	c2.681-1.909,5.264-3.479,7.746-4.718c2.486-1.238,4.781-1.858,6.885-1.858s3.826,0.383,5.166,1.143
	c1.336,0.766,2.482,1.622,3.443,2.573c0,0,0.045,0.045,0.146,0.146c0.09,0.096,0.23,0.236,0.424,0.422
	c2.871,2.86,5.262,9.284,7.174,19.289c1.916,10,3.537,20.713,4.877,32.143c1.34,12.192,2.387,23.522,3.154,33.994
	c0.77,10.483,1.438,16.575,2.008,18.286l-34.137,21.148c0-3.617-0.188-9.101-0.572-16.431c-0.385-7.331-1.052-14.999-2.013-23.005
	c-0.955-9.143-2.386-17.803-4.302-26c-1.91-8.185-4.205-13.703-6.886-16.562c-0.187-0.193-0.385-0.384-0.57-0.576
	c-0.191-0.19-0.288-0.381-0.288-0.574c-0.764-0.563-1.622-1.092-2.583-1.564c-0.955-0.484-2.295-0.721-4.015-0.721
	c-0.955,0-2.007,0.189-3.153,0.574c-1.147,0.384-2.295,0.855-3.442,1.43c-1.146,0.766-2.346,1.564-3.59,2.434
	c-1.237,0.855-2.438,1.756-3.584,2.713c-1.147,0.945-2.198,1.848-3.154,2.715c-0.955,0.855-1.818,1.666-2.583,2.42
	c-2.68,2.67-5.642,6.001-8.892,9.999c-3.251,4.009-6.501,8.287-9.758,12.859c-2.288,3.051-4.584,6.238-6.885,9.57
	c-2.29,3.333-4.487,6.723-6.597,10.146c-2.29,3.807-4.443,7.566-6.45,11.283c-2.013,3.717-3.782,7.285-5.308,10.719l-5.45-0.291
	c-0.191-3.615-0.429-7.657-0.718-12.139c-0.288-4.482-0.621-8.998-1.006-13.57c-0.764-9.717-1.865-18.815-3.297-27.282
	c-1.436-8.479-3.301-13.86-5.596-16.146c-0.187-0.191-0.385-0.383-0.571-0.574c-0.191-0.191-0.384-0.383-0.575-0.563
	c-1.147-0.767-2.393-1.531-3.731-2.297c-1.334-0.755-2.674-1.138-4.013-1.138c-1.72,0-3.731,0.576-6.026,1.713
	c-2.295,1.148-4.687,2.668-7.168,4.572c-1.34,1.147-2.679,2.285-4.019,3.434c-1.341,1.137-2.584,2.285-3.731,3.422
	c-2.865,2.86-6.116,6.532-9.751,11.002s-7.365,9.38-11.187,14.717c-4.205,5.709-8.271,11.902-12.193,18.568
	c-3.917,6.667-7.411,13.423-10.469,20.28c-0.385,0.957-0.764,1.857-1.147,2.713c-0.384,0.867-0.769,1.769-1.146,2.726h-8.897
	c0-0.573,0.051-1.666,0.147-3.288c0.096-1.621,0.236-3.861,0.43-6.711c0-2.669,0.051-5.811,0.141-9.438
	c0.097-3.613,0.147-7.521,0.147-11.711v-7.994c0-3.051-0.051-6.575-0.147-10.573c-0.09-4.009-0.236-8.007-0.43-12.003
	c-0.571-9.333-1.769-17.903-3.584-25.718c-1.813-7.803-4.827-11.711-9.033-11.711c-0.763,0-1.577,0.096-2.441,0.287
	c-0.859,0.19-1.77,0.479-2.726,0.854c-1.146,0.383-2.147,0.812-3.007,1.29c-0.865,0.473-1.679,0.997-2.442,1.564l-1.43-6.283
	c2.481-1.334,4.969-2.809,7.451-4.43c2.493-1.616,4.884-3.187,7.173-4.712c6.506-4.763,12.385-9.093,17.648-13
	c5.257-3.901,9.604-5.855,13.046-5.855c0.385,0,0.769,0.045,1.152,0.141c0.38,0.096,0.765,0.146,1.143,0.146
	c0.577,0.382,1.198,0.76,1.866,1.137c0.672,0.383,1.288,0.766,1.864,1.143c0.385,0.197,0.764,0.433,1.146,0.721
	c0.385,0.287,0.668,0.523,0.859,0.709c1.725,1.717,3.153,5.383,4.309,11.001c1.146,5.618,1.91,11.569,2.289,17.86
	c0.769,7.233,1.198,13.899,1.288,19.991c0.097,6.104,0.146,9.436,0.146,10.01v-0.295H572.575z M500.287,134.286
	c0,7.994-1.576,15.088-4.736,21.281c-3.154,6.193-6.643,11.574-10.47,16.147c-1.531,1.902-3.058,3.659-4.59,5.28
	c-1.525,1.621-2.968,3.098-4.302,4.426c-1.146,1.148-2.295,2.285-3.442,3.436c-1.146,1.147-2.391,2.285-3.73,3.422
	c-5.738,4.955-12.334,9.482-19.791,13.58c-7.461,4.088-15.11,6.137-22.95,6.137c-11.097,0-20.609-4.424-28.541-13.286
	c-7.937-8.851-12.673-18.612-14.2-29.276c-0.191-1.148-0.339-2.297-0.43-3.435c-0.102-1.147-0.147-2.286-0.147-3.424
	c0-7.433,1.771-14.007,5.309-19.715c3.539-5.721,8.366-11.238,14.481-16.575c1.917-1.712,3.975-3.378,6.174-5
	c2.198-1.622,4.442-3.289,6.737-5l4.303,3.142c-0.956,1.52-1.86,3.051-2.726,4.572c-0.858,1.52-1.577,3.143-2.153,4.854
	c-0.763,2.094-1.334,4.201-1.719,6.295c-0.384,2.094-0.57,3.896-0.57,5.426c0,7.229,1.48,13.716,4.442,19.424
	c2.968,5.72,6.264,10.382,9.898,13.997c0.191,0.191,0.333,0.338,0.43,0.428c0.096,0.102,0.243,0.248,0.429,0.439
	c0.386,0.371,0.725,0.709,1.006,0.99c0.288,0.293,0.622,0.619,1.007,1.002c2.486,2.094,5.5,4.053,9.032,5.855
	c3.539,1.813,7.508,2.714,11.905,2.714c6.693,0,11.521-2.095,14.488-6.282c2.962-4.189,4.442-9.043,4.442-14.572
	c0-1.52-0.096-3.096-0.282-4.717c-0.192-1.611-0.48-3.188-0.865-4.709c-1.142-5.91-3.295-11.62-6.45-17.147
	c-3.154-5.518-6.646-10.281-10.475-14.279c-4.398-4.38-9.417-7.859-15.06-10.434c-5.641-2.572-11.898-3.855-18.79-3.855
	c-1.911,0-3.775,0.141-5.591,0.428c-1.82,0.287-3.392,0.619-4.73,1.002c-0.385,0.19-0.77,0.332-1.153,0.428
	c-0.379,0.096-0.763,0.141-1.147,0.141l-0.858-5.14c0.191,0,0.333-0.045,0.43-0.141c0.102-0.101,0.243-0.242,0.43-0.433
	c4.02-3.812,8.75-7.522,14.2-11.142c5.455-3.621,11.045-6.475,16.783-8.574c2.679-0.952,5.308-1.712,7.891-2.28
	c2.583-0.574,5.116-0.861,7.598-0.861c10.52,0,19.463,3.575,26.828,10.713c7.359,7.145,12.859,14.909,16.488,23.286
	c1.725,4.004,3.014,7.854,3.872,11.57c0.865,3.717,1.294,7.105,1.294,10.146v-0.282H500.287z M372.061,134.286
	c0,7.994-1.583,15.088-4.737,21.281c-3.153,6.193-6.642,11.574-10.469,16.147c-1.532,1.902-3.058,3.659-4.59,5.28
	s-2.962,3.098-4.302,4.426c-1.147,1.148-2.295,2.285-3.443,3.436c-1.147,1.147-2.391,2.285-3.73,3.422
	c-5.737,4.955-12.334,9.482-19.791,13.58c-7.462,4.088-15.109,6.137-22.949,6.137c-11.091,0-20.604-4.424-28.541-13.286
	c-7.938-8.851-12.674-18.612-14.2-29.276c-0.191-1.148-0.339-2.297-0.436-3.435c-0.097-1.147-0.142-2.286-0.142-3.424
	c0-7.433,1.77-14.007,5.309-19.715c3.539-5.721,8.365-11.238,14.482-16.575c1.916-1.712,3.968-3.378,6.172-5
	c2.199-1.622,4.443-3.289,6.738-5l4.302,3.142c-0.955,1.52-1.859,3.051-2.719,4.572c-0.865,1.52-1.583,3.143-2.154,4.854
	c-0.769,2.094-1.34,4.201-1.724,6.295c-0.379,2.094-0.571,3.896-0.571,5.426c0,7.229,1.481,13.716,4.449,19.424
	c2.962,5.72,6.257,10.382,9.892,13.997c0.192,0.191,0.339,0.338,0.437,0.428c0.09,0.102,0.23,0.248,0.43,0.439
	c0.378,0.371,0.712,0.709,1,0.99c0.288,0.293,0.622,0.619,1.006,1.002c2.482,2.094,5.495,4.053,9.033,5.855
	c3.539,1.813,7.507,2.714,11.905,2.714c6.692,0,11.521-2.095,14.487-6.282c2.963-4.189,4.443-9.043,4.443-14.572
	c0-1.52-0.09-3.096-0.283-4.717c-0.191-1.611-0.479-3.188-0.858-4.709c-1.153-5.91-3.302-11.62-6.456-17.147
	c-3.16-5.518-6.648-10.281-10.476-14.279c-4.397-4.38-9.417-7.859-15.059-10.434c-5.643-2.572-11.905-3.855-18.79-3.855
	c-1.911,0-3.775,0.141-5.59,0.428c-1.82,0.287-3.397,0.619-4.737,1.002c-0.378,0.19-0.763,0.332-1.142,0.428
	c-0.384,0.096-0.77,0.141-1.153,0.141l-0.858-5.14c0.191,0,0.333-0.045,0.429-0.141c0.096-0.101,0.243-0.242,0.43-0.433
	c4.02-3.812,8.75-7.522,14.2-11.142c5.455-3.621,11.046-6.475,16.783-8.574c2.674-0.952,5.308-1.712,7.892-2.28
	c2.578-0.574,5.11-0.861,7.597-0.861c10.521,0,19.457,3.575,26.822,10.713c7.366,7.145,12.867,14.909,16.496,23.286
	c1.724,4.004,3.013,7.854,3.877,11.57c0.854,3.717,1.289,7.105,1.289,10.146v-0.282H372.061z M228.627,0.001
	c2.866,0.186,5.116,1.329,6.744,3.423c1.623,2.1,2.437,4.667,2.437,7.719c0,5.141,0,10.375,0,15.713
	c0,5.332,0.096,10.568,0.288,15.713c0.192,14.853,0.43,29.52,0.718,43.995c0.289,14.48,0.719,27.813,1.289,40.008
	c0.384,16.754,0.814,30.559,1.294,41.425c0.476,10.854,0.712,16.756,0.712,17.713l-37.862,23.715c0-1.904,0.045-4.91,0.142-8.996
	c0.09-4.101,0.141-8.334,0.141-12.715c0-0.766,0-1.486,0-2.15s0-1.283,0-1.857c0.192-5.135,0.333-9.706,0.431-13.715
	c0.102-3.998,0.146-6.184,0.146-6.564v-56.29c0-27.615-0.627-46.904-1.864-57.854c-1.244-10.951-4.828-16.429-10.758-16.429
	c-1.34,0-2.679,0.237-4.019,0.715c-1.334,0.479-2.578,1.002-3.731,1.571c-0.187,0.191-0.424,0.382-0.712,0.568
	c-0.288,0.197-0.622,0.383-1.006,0.58l-2.866-5.433c2.487-1.334,5.398-3.333,8.75-5.906c3.348-2.618,6.931-5.236,10.758-7.948
	c0.379-0.197,0.813-0.479,1.288-0.856c0.48-0.383,1-0.766,1.577-1.143c5.354-3.856,10.521-7.336,15.488-10.382
	C222.984,1.522,226.523,0.001,228.627,0.001z M77.736,57.422l-7.744,0.575l-0.577,51.711c0,3.238,0.051,7.572,0.146,13
	c0.097,5.428,0.238,11.091,0.431,17.002c0,0.574,0,1.138,0,1.711c0,0.574,0,1.147,0,1.712c0.191,6.475,0.333,12.432,0.43,17.858
	c0.096,5.427,0.146,9.188,0.146,11.282c0.764,0.384,1.577,0.767,2.438,1.148c0.859,0.383,1.769,0.756,2.725,1.137
	c3.063,1.148,6.5,2.242,10.328,3.289c3.827,1.047,7.744,1.857,11.758,2.432c1.538,0.191,3.063,0.326,4.597,0.429
	c1.525,0.09,3.058,0.146,4.59,0.146c10.708,0,17.88-2.149,21.515-6.428c3.629-4.291,5.443-9.584,5.443-15.857
	c0-11.057-4.25-20.052-12.758-27.001c-8.514-6.959-17.834-11-27.971-12.149c-0.577,0-1.197-0.044-1.871-0.136
	c-0.661-0.102-1.289-0.145-1.859-0.145v-5.715c8.987-1.525,16.354-4.713,22.091-9.572c5.738-4.859,8.604-11.097,8.604-18.714
	c0-7.713-3.635-14.239-10.899-19.621C102.026,60.137,91.506,57.422,77.736,57.422z M138.554,99.998
	c0.95,0.569,1.911,1.092,2.866,1.571c0.955,0.473,1.911,0.997,2.866,1.571c5.93,3.238,11.385,8.096,16.354,14.571
	c4.976,6.475,7.462,13.434,7.462,20.854c0,6.104-1.294,11.62-3.872,16.575c-2.583,4.955-5.5,9.053-8.756,12.284
	c-0.763,0.957-3.533,3.479-8.314,7.565c-4.782,4.1-10.616,8.525-17.495,13.289c-3.25,2.477-6.693,4.854-10.328,7.148
	c-3.635,2.275-7.271,4.381-10.905,6.283c-4.59,2.286-9.129,4.145-13.623,5.563c-4.494,1.442-8.654,2.152-12.48,2.152
	c-3.25,0-7.123-0.339-11.617-1.003c-4.494-0.665-9.129-1.476-13.911-2.433c-1.34-0.182-2.725-0.473-4.161-0.855
	c-1.43-0.371-2.821-0.664-4.161-0.855c-3.441-0.766-6.737-1.521-9.892-2.285c-3.16-0.756-5.885-1.43-8.18-1.993
	c0-0.573,0.287-2.815,0.858-6.724c0.577-3.906,1.244-9.762,2.007-17.565c0.576-8.006,1.153-18.287,1.725-30.853
	c0.57-12.577,0.858-27.813,0.858-45.716c0-4.194-0.045-8.147-0.141-11.857c-0.096-3.716-0.243-7.291-0.43-10.714
	c-0.192-3.429-0.333-6.57-0.431-9.431c-0.096-2.86-0.146-5.523-0.146-8L-0.001,62L33.848,31.71c4.398-0.76,10.521-1.571,18.36-2.426
	c7.84-0.856,15.969-1.29,24.38-1.29c0.385,0,0.718,0,1.006,0s0.526,0,0.718,0c29.067,0,49.44,4.481,61.102,13.434
	c11.662,8.952,17.501,18.95,17.501,29.997c0,2.286-0.288,4.763-0.859,7.426c-0.582,2.668-1.724,5.433-3.448,8.288
	c-1.531,2.285-3.392,4.526-5.591,6.71c-2.199,2.196-5.02,4.335-8.462,6.43V99.998L138.554,99.998z"/>
</svg>
