<svg xmlns="http://www.w3.org/2000/svg" viewBox="0 0 871.55 201.71"><defs><style>.cls-1{fill:#fff;}</style></defs><title>logo_tflx_branco</title><g id="Camada_2" data-name="Camada 2"><g id="Layer_1" data-name="Layer 1"><path class="cls-1" d="M2.18,101.38q27.62.75,40.87.75,10.05,0,22.13-.59,4.3-.21,7.08-.21l3.56,0c.25,1.46.57,4.45,1,9l.8,8.4c0,1.38-.59,2.07-1.75,2.07-.88,0-1.73-.84-2.54-2.55a25.19,25.19,0,0,0-5.19-7.39,15.65,15.65,0,0,0-7.34-4.09q-4.18-1-13.81-1a200.67,200.67,0,0,0-.85,20.36q0,12.5.48,24.12t1.17,14a6.11,6.11,0,0,0,2.34,3.51q1.65,1.11,7.76,1.54c1.38.11,2.07.6,2.07,1.49s-.6,1.49-1.8,1.49l-1.5-.06-11-.26q-12.89,0-15.65.1l-6.71.27c-.53,0-1.63,0-3.3-.11-.82-.18-1.22-.62-1.22-1.33,0-1,.67-1.54,2-1.54,3.15,0,5.53-.65,7.12-2s2.58-3.39,2.95-6.24.56-9.05.56-18.59Q31.37,120,30,105.8a79.74,79.74,0,0,0-12.68.71,15.65,15.65,0,0,0-7.53,3.94,24.08,24.08,0,0,0-5.9,8.32c-.6,1.35-1.29,2-2.07,2C.6,120.79,0,120.26,0,119.2q0-.48.67-7C1.11,107.86,1.61,104.26,2.18,101.38Z"/><path class="cls-1" d="M140.85,102.45q1.71,8.3,3.36,16.59a1.36,1.36,0,0,1-1.54,1.54c-.57,0-1.2-.49-1.9-1.48q-5.49-7.95-10-10.49t-13.12-2.55a52.62,52.62,0,0,0-9.25.8,203.48,203.48,0,0,0-1,20.59c0,1.27,0,3.41.11,6.42l4,.06a18.44,18.44,0,0,0,6.51-1,9.27,9.27,0,0,0,4.65-4.42,26.72,26.72,0,0,0,2.18-4.33c.32-1.13.87-1.7,1.65-1.7,1,0,1.49.43,1.49,1.28a4.13,4.13,0,0,1-.11.85q-.63,3.29-.63,19.72a18.89,18.89,0,0,0,.41,4.15,4.29,4.29,0,0,1,.12.9c0,1-.57,1.49-1.7,1.49-.79,0-1.39-.94-1.81-2.81a11.66,11.66,0,0,0-4.86-7.53q-3.78-2.58-11.94-2.68-.27,8.92-.27,11.75,0,12.12.37,14.41a5.24,5.24,0,0,0,2.71,3.69c1.56.94,4.21,1.41,7.93,1.41q20.27,0,26.65-12.86c.6-1.21,1.25-1.81,2-1.81,1,0,1.53.42,1.53,1.27a9.74,9.74,0,0,1-.31,2.18l-3.46,15.26-19.25-.05q-8.13,0-15.18-.37c-4.7-.22-8.38-.32-11-.32q-4.47,0-13.45.53c-.75.07-1.3.11-1.65.11-1.67,0-2.5-.55-2.5-1.65s.67-1.49,2-1.49q5.16,0,6.94-2.79t1.78-11.4l.32-27.36q0-14-.35-17.24t-1.83-4.36c-1-.75-2.86-1.33-5.59-1.72-1.13-.14-1.7-.64-1.7-1.49,0-1.06.66-1.6,2-1.6l12.81.39Z"/><path class="cls-1" d="M211.57,106.75c.75-.92,1.53-2,2.34-3.08q1.44-2.07,2.4-2.07a1.52,1.52,0,0,1,1.38.53,10.88,10.88,0,0,1,.53,3.3L219.28,122l.11,2.12c0,1.42-.57,2.13-1.7,2.13-.75,0-1.35-.59-1.81-1.76A47.73,47.73,0,0,0,208,112a17.76,17.76,0,0,0-14.3-6.88A16,16,0,0,0,183,108.8a24.25,24.25,0,0,0-6.76,10.13,43.94,43.94,0,0,0-2.42,15.42q0,15.38,6.76,24.43t16.81,9.07q10.91,0,20-13.19,1.11-1.59,2.1-1.59a1.51,1.51,0,0,1,1.7,1.7q0,3.51-8.38,11.16t-21,7.66q-16.69,0-26.38-10.31t-9.67-25.37a38,38,0,0,1,9.76-26,31.51,31.51,0,0,1,24.67-11Q200.72,100.85,211.57,106.75Z"/><path class="cls-1" d="M245.77,101.86q25.47,29,42.48,46.47c0-2.41.05-4,.05-4.67l.05-21A46.42,46.42,0,0,0,287.5,112a8.55,8.55,0,0,0-3.61-5.07,13.39,13.39,0,0,0-6.44-2.17c-1.31-.15-2-.7-2-1.66s.6-1.54,1.8-1.54a22.6,22.6,0,0,1,2.61.2,88,88,0,0,0,8.88.34q7.34,0,11.16-.39c1.07-.1,2-.15,2.72-.15,1.34,0,2,.52,2,1.54s-.91,1.58-2.71,1.76a11,11,0,0,0-6.25,2.82q-2.89,2.49-2.9,9.82l.26,30.08-.37,22.63c0,1.95-.6,2.92-1.8,2.92a2.5,2.5,0,0,1-1.12-.32q-.65-.31-7.31-7.36t-19.83-21.85q-13.17-14.81-18.48-21.25-.1,1.44-.11,26.75a86.08,86.08,0,0,0,.67,12.25,8.39,8.39,0,0,0,4.14,6.44,13,13,0,0,0,6.31,2q1.8,0,1.8,1.38c0,1.06-.64,1.59-1.91,1.59a28.47,28.47,0,0,1-3.09-.21,63.94,63.94,0,0,0-8.13-.43,96.57,96.57,0,0,0-11.49.48,30.46,30.46,0,0,1-3.19.27c-1.38,0-2.07-.59-2.07-1.76,0-.85,1.12-1.36,3.35-1.54q6-.48,7.52-4.14a26.83,26.83,0,0,0,1.52-10q0-27.43-.29-33.55a20.37,20.37,0,0,0-3.83-11.06,13.58,13.58,0,0,0-8.54-5.91c-1.38-.24-2.07-.8-2.07-1.64,0-1.17.73-1.76,2.18-1.76.35,0,.87,0,1.54.11.82.07,2.29.1,4.42.1Q239.82,101.7,245.77,101.86Z"/><path class="cls-1" d="M345.44,101a39.27,39.27,0,0,1,18.79,4.3,33,33,0,0,1,12.92,12.47A34.08,34.08,0,0,1,382,135.52q0,14.89-11.11,26.4t-27.55,11.51a36.94,36.94,0,0,1-25.55-9.51q-10.6-9.53-10.61-25.74a35.79,35.79,0,0,1,11-26.27Q329.16,101,345.44,101ZM364,137.12q0-16.11-5.47-24.25t-13.88-8.13q-8.36,0-13.83,8.16t-5.47,24.22q0,15.42,5.23,23.92t14.07,8.51q7.82,0,13.58-7.68T364,137.12Z"/><path class="cls-1" d="M392.57,135.37c0-1.1.1-1.74.3-1.91a4.85,4.85,0,0,1,2.25-.27h30.26a4.89,4.89,0,0,1,2.23.27c.21.17.32.81.32,1.91v6c0,1.09-.1,1.73-.29,1.91a5,5,0,0,1-2.26.26H395.12a4.91,4.91,0,0,1-2.25-.26c-.2-.18-.3-.82-.3-1.91Z"/><path class="cls-1" d="M493.33,102.29l2.72,16.06.1.74c0,1-.36,1.54-1.08,1.54-.49,0-1-.39-1.45-1.17a34.07,34.07,0,0,0-9.28-9.91Q479.18,106,467.67,106c-5.29,0-8.25.56-8.9,1.68s-1,9.82-1,26.13a38.11,38.11,0,0,0,9.07-.82,9.14,9.14,0,0,0,4.89-2.89q1.73-2.06,3.17-7.62c.24-1,.65-1.49,1.22-1.49,1.06,0,1.59.68,1.59,2l-.37,17c-.11,5.88-.26,9-.48,9.49a1.18,1.18,0,0,1-1.17.66c-.88,0-1.42-.71-1.59-2.13a13,13,0,0,0-3.38-7.82q-2.79-2.87-12.95-2.86l-.05,19.73a28.32,28.32,0,0,0,.83,8.24,5.46,5.46,0,0,0,2.47,3.32,12.22,12.22,0,0,0,5.16,1,11.62,11.62,0,0,1,3.24.35,1.25,1.25,0,0,1,.69,1.3c0,1.14-.8,1.7-2.39,1.7s-4.22-.12-8.3-.37c-3.44-.21-6-.32-7.76-.32l-16.8.53c-1.7,0-2.56-.51-2.56-1.54s1.05-1.47,3.14-1.54q5.43-.21,6.49-4.83T443,131.33q0-18.8-1.35-22.4t-6.62-3.61l-1.44.05c-1.28,0-1.91-.53-1.91-1.59s1-1.49,3.08-1.49Z"/><path class="cls-1" d="M560,172.79q-13.31-.69-41.37-.69-9.78,0-15.9.59c-1,.07-1.72.1-2.18.1-1.35,0-2-.53-2-1.59a1.09,1.09,0,0,1,.53-1,10.92,10.92,0,0,1,2.61-.61,10.12,10.12,0,0,0,5.05-1.94,8,8,0,0,0,2.47-4.37q.72-2.91.83-14.81t.1-28.3a34.18,34.18,0,0,0-.95-9.51,8.58,8.58,0,0,0-2.74-4.32,8.91,8.91,0,0,0-5-1.51q-2.28-.11-2.28-1.71c0-1.06.86-1.59,2.6-1.59l17.65.53q4.09,0,11.44-.41c1.77-.08,3-.12,3.61-.12,1.49,0,2.24.51,2.24,1.54a1.22,1.22,0,0,1-.72,1.2,16.48,16.48,0,0,1-3.59.77,9.48,9.48,0,0,0-5,1.81,7.72,7.72,0,0,0-2,4.63,128.29,128.29,0,0,0-.51,14.81v32.33q.06,7.46,1.33,8.87t4.84,1.41q8.73,0,13-1.36a21.57,21.57,0,0,0,8.11-4.92q3.85-3.56,8.28-12c.6-1.13,1.21-1.7,1.85-1.7.95,0,1.43.51,1.43,1.54Q563.63,153.91,560,172.79Z"/><path class="cls-1" d="M626.37,102.45q1.7,8.3,3.35,16.59a1.36,1.36,0,0,1-1.53,1.54c-.57,0-1.21-.49-1.91-1.48q-5.49-7.95-10-10.49t-13.11-2.55a52.82,52.82,0,0,0-9.26.8q-.95,9.39-1,20.59,0,1.9.11,6.42l4,.06a18.46,18.46,0,0,0,6.52-1,9.31,9.31,0,0,0,4.65-4.42,28.65,28.65,0,0,0,2.18-4.33c.32-1.13.87-1.7,1.65-1.7,1,0,1.49.43,1.49,1.28a4.13,4.13,0,0,1-.11.85q-.65,3.29-.64,19.72a18.86,18.86,0,0,0,.42,4.15,4.94,4.94,0,0,1,.11.9c0,1-.57,1.49-1.7,1.49-.78,0-1.38-.94-1.8-2.81a11.74,11.74,0,0,0-4.86-7.53q-3.78-2.58-12-2.68-.27,8.92-.26,11.75,0,12.12.37,14.41a5.22,5.22,0,0,0,2.71,3.69c1.56.94,4.21,1.41,7.93,1.41q20.26,0,26.65-12.86c.6-1.21,1.25-1.81,2-1.81,1,0,1.53.42,1.53,1.27a9.84,9.84,0,0,1-.32,2.18l-3.45,15.26-19.26-.05c-5.41,0-10.48-.16-15.17-.37s-8.38-.32-11-.32q-4.47,0-13.45.53c-.75.07-1.3.11-1.65.11-1.66,0-2.5-.55-2.5-1.65s.68-1.49,2-1.49q5.16,0,6.94-2.79t1.78-11.4l.32-27.36q0-14-.34-17.24c-.23-2.14-.85-3.59-1.84-4.36s-2.85-1.33-5.58-1.72c-1.13-.14-1.7-.64-1.7-1.49,0-1.06.66-1.6,2-1.6l12.81.39Z"/><path class="cls-1" d="M679.37,127.31q11.45-14.1,11.44-17.68a3.61,3.61,0,0,0-1.19-2.87q-1.2-1.07-4.86-1.87c-1.14-.21-1.71-.76-1.71-1.64s.68-1.39,2-1.39c.81,0,2.19.08,4.1.24,2.65.2,4.91.29,6.75.29,2.55,0,5.9-.11,10.05-.35,1.95-.12,3.16-.18,3.62-.18,1.7,0,2.55.52,2.55,1.54s-.66,1.42-2,1.49a15.81,15.81,0,0,0-7.32,2.19,25.76,25.76,0,0,0-6.8,5.66q-3.1,3.6-14.13,17.86,6,10.38,14,21.87t11.91,14.23a15.73,15.73,0,0,0,6.91,3.07c1.67.17,2.5.7,2.5,1.59s-.85,1.49-2.55,1.49l-19.62-.64q-3.83,0-7.61.26l-4.25.22c-1.52,0-2.46,0-2.82.05a10.33,10.33,0,0,1-1.22.11,1.34,1.34,0,0,1-1.54-1.49c0-.89.6-1.38,1.81-1.49q5.84-.52,5.84-4.1,0-4.1-13.06-22.43-14,18-14,21.44,0,3.75,8.51,5,1.86.25,1.86,1.38c0,1.06-.64,1.59-1.91,1.59-.61,0-2.22-.08-4.84-.23-3.16-.2-6.31-.3-9.47-.3q-4.47,0-7,.21c-2.12.22-3.54.32-4.25.32-2.06,0-3.08-.55-3.08-1.65,0-.81.55-1.29,1.65-1.43a21,21,0,0,0,7.68-2.29q2.85-1.65,7-6.73t15.43-20.77q-13.42-22-18.72-28T640,105c-1.42-.21-2.12-.77-2.12-1.65s.65-1.54,2-1.54a26.26,26.26,0,0,1,2.77.19q3.4.33,14.73.34,4.73,0,11.43-.32,4-.21,4.68-.21c1.91,0,2.87.49,2.87,1.49s-.76,1.52-2.29,1.59a15,15,0,0,0-3.51.88c-1.45.51-2.18,1.32-2.18,2.42s.75,2.78,2.24,5.35S675,120.67,679.37,127.31Z"/><rect class="cls-1" x="2.3" y="36.77" width="10.98" height="42.24"/><rect class="cls-1" x="28.06" y="36.77" width="10.98" height="42.24"/><rect class="cls-1" x="53.82" y="36.77" width="10.98" height="42.24"/><rect class="cls-1" x="79.59" y="36.77" width="10.98" height="42.24"/><rect class="cls-1" x="105.35" y="36.77" width="10.98" height="42.24"/><rect class="cls-1" x="131.11" y="36.77" width="10.98" height="42.24"/><rect class="cls-1" x="156.87" y="36.77" width="10.98" height="42.24"/><rect class="cls-1" x="182.63" y="36.77" width="10.98" height="42.24"/><rect class="cls-1" x="208.4" y="36.77" width="10.98" height="42.24"/><rect class="cls-1" x="234.16" y="36.77" width="10.98" height="42.24"/><rect class="cls-1" x="259.92" y="36.77" width="10.98" height="42.24"/><rect class="cls-1" x="285.68" y="36.77" width="10.98" height="42.24"/><rect class="cls-1" x="311.44" y="36.77" width="10.98" height="42.24"/><rect class="cls-1" x="337.2" y="36.77" width="10.98" height="42.24"/><rect class="cls-1" x="363.39" y="36.77" width="10.98" height="42.24"/><rect class="cls-1" x="389.58" y="36.77" width="10.98" height="42.24"/><rect class="cls-1" x="415.77" y="36.77" width="10.98" height="42.24"/><rect class="cls-1" x="441.95" y="36.77" width="10.98" height="42.24"/><rect class="cls-1" x="468.14" y="36.77" width="10.98" height="42.24"/><rect class="cls-1" x="494.33" y="36.77" width="10.98" height="42.24"/><rect class="cls-1" x="520.52" y="36.77" width="10.98" height="42.24"/><rect class="cls-1" x="546.7" y="36.77" width="10.98" height="42.24"/><rect class="cls-1" x="572.89" y="36.77" width="10.98" height="42.24"/><rect class="cls-1" x="599.08" y="36.77" width="10.98" height="42.24"/><rect class="cls-1" x="625.27" y="36.77" width="10.98" height="42.24"/><rect class="cls-1" x="651.45" y="36.77" width="10.98" height="42.24"/><rect class="cls-1" x="677.64" y="36.77" width="10.98" height="42.24"/><rect class="cls-1" x="703.83" y="36.77" width="10.98" height="42.24"/><rect class="cls-1" x="801.98" y="82.63" width="3.73" height="16.07" transform="translate(694.04 892.11) rotate(-88.63)"/><rect class="cls-1" x="802" y="88.97" width="3.72" height="16.07" transform="translate(685.57 898.01) rotate(-88.48)"/><path class="cls-1" d="M803.85,84.09a42,42,0,1,1,42-42A42.09,42.09,0,0,1,803.85,84.09Zm0-78.69a36.65,36.65,0,1,0,36.64,36.65A36.69,36.69,0,0,0,803.85,5.4Z"/><path class="cls-1" d="M738.27,134.06a19.55,19.55,0,0,1,1.85-5.35L753,135.29a5.57,5.57,0,0,0-.51,1.4Zm4.7-9.63a29.63,29.63,0,0,1,3.27-3.39l9.59,10.77a18.15,18.15,0,0,0-1.75,1.78Zm6.71-6.11c1.11-.8,2.3-1.56,3.56-2.3l7.3,12.43c-.88.52-1.72,1.05-2.5,1.62Zm7.16-4.25c1.16-.58,2.37-1.15,3.62-1.69l5.73,13.23q-1.5.66-2.91,1.35Zm7.29-3.16c1.2-.46,2.45-.9,3.71-1.3l4.48,13.69c-1.06.35-2.09.71-3.1,1.1Zm7.43-2.45c1.22-.34,2.47-.67,3.74-1l3.43,14c-1.09.27-2.17.55-3.24.85Zm7.49-1.83c1.27-.27,2.54-.51,3.8-.73l2.45,14.21q-1.65.28-3.3.63Zm44.44-1.25c1,0,2.07-.07,3.1-.16l1.25,14.36c-1.36.12-2.73.19-4.1.21ZM816,119.57l.9-14.4c1.16.08,2.28.13,3.4.17l-.49,14.41C818.51,119.71,817.25,119.65,816,119.57Zm-29.29-14.25c1.28-.18,2.56-.33,3.83-.46L792,119.2c-1.11.12-2.22.24-3.33.4Zm22.1,13.74.93-14.38,3.65.25-1,14.39Zm20.79-14.22c.93-.17,1.88-.37,2.83-.64l3.83,13.9c-1.4.38-2.79.7-4.19.94Zm-35.2-.3c1.31-.08,2.6-.15,3.89-.18l.36,14.42c-1.1,0-2.21.08-3.33.15Zm7.55,14.22.23-14.41c1.3,0,2.57.06,3.82.12l-.66,14.4C804.19,118.82,803.06,118.79,801.9,118.76Zm33.25-15.47c.89-.34,1.79-.73,2.7-1.18l6.34,13c-1.33.64-2.61,1.2-3.9,1.69Zm5.36-2.61c.86-.51,1.73-1.07,2.63-1.68l8.17,11.87c-1.18.8-2.32,1.54-3.46,2.21Zm5.18-3.55q1.24-1,2.52-2.07L857.6,106c-1,.89-2.05,1.71-3,2.5Zm5-4.29c.79-.74,1.59-1.5,2.39-2.31l10.21,10.18c-.95.94-1.88,1.85-2.79,2.69Z"/><path class="cls-1" d="M750.11,201.71l-1.51-2.85,6.37-3.38,1.51,2.83Zm-3.2-6-1.7-3.17,6.36-3.4,1.7,3.19Zm-3.4-6.35-1.69-3.18,6.37-3.39,1.69,3.18Z"/><path class="cls-1" d="M839,201.37,835.6,195l3.18-1.7,3.4,6.36Zm6.36-3.4L842,191.6l3.18-1.69,3.39,6.36Zm6.36-3.4-3.39-6.36,2.84-1.51,3.38,6.37Z"/><path class="cls-1" d="M748,146.33l.48-7.19,3.59.23-.48,7.2Zm-7.19-.47.48-7.19,3.59.23-.47,7.2Zm-6.8-.45.47-7.19,3.21.21-.48,7.2Z"/><path class="cls-1" d="M863.94,97.34l5-5.18,2.59,2.51-5,5.18Zm-5.17-5,5-5.17,2.59,2.51-5,5.17Zm-4.89-4.74,5-5.18,2.31,2.24-5,5.18Z"/><polygon class="cls-1" points="868.23 87.93 870.61 85.23 867.92 82.84 865.53 85.55 868.23 87.93"/><polygon class="cls-1" points="741.67 198.07 740.14 194.8 743.41 193.28 744.93 196.54 741.67 198.07"/><path class="cls-1" d="M758.34,195.13l-6.74-12.74q1.35-.72,2.61-1.53L761.94,193C760.8,193.77,759.59,194.46,758.34,195.13Zm7-4.49-8.69-11.5c.82-.61,1.6-1.26,2.36-1.92L768.6,188C767.57,188.91,766.49,189.8,765.37,190.64Zm70.8,0c-.51-1.1-1-2.35-1.58-3.75L848,181.68c.41,1.08.82,2.06,1.21,2.9Zm-64.6-5.48-10.31-10.07c.73-.74,1.42-1.51,2.1-2.3l11,9.36C773.45,183.18,772.54,184.18,771.57,185.16Zm61.71-1.82L832,179.87l13.61-4.77,1.19,3.36ZM776.85,179l-11.5-8.7c.65-.85,1.26-1.72,1.87-2.61l11.95,8.06C778.43,176.85,777.66,177.93,776.85,179Zm54-2.52-1.2-3.33,13.56-4.92c.42,1.18.84,2.33,1.23,3.47Zm-49.58-4L769,164.91c.59-.95,1.15-1.9,1.69-2.86l12.56,7.08C782.62,170.25,782,171.37,781.28,172.47Zm47.17-2.62c-.41-1.08-.83-2.17-1.27-3.27l13.41-5.29c.46,1.15.9,2.31,1.34,3.44Zm-43.38-4L772.38,159c.55-1,1.09-2.05,1.62-3.08l12.81,6.6C786.25,163.64,785.67,164.74,785.07,165.85Zm40.79-2.47c-.44-1-.89-2.08-1.36-3.1l13.11-6c.54,1.16,1,2.33,1.54,3.5Zm-37.39-4-12.83-6.58,1.65-3.22,12.82,6.59Zm34.59-2.09c-.5-1-1-2-1.53-2.93l12.62-7c.63,1.14,1.23,2.3,1.81,3.48Zm-31.34-4.14-12.65-6.92c.64-1.16,1.28-2.29,1.93-3.38l12.37,7.41C792.81,151.14,792.27,152.11,791.72,153.1Zm28.16-1.6c-.56-.91-1.13-1.78-1.73-2.61l11.75-8.36c.77,1.09,1.53,2.22,2.25,3.4Zm-24.82-3.95-11.88-8.16c.82-1.2,1.65-2.33,2.54-3.39l11.12,9.17C796.23,145.91,795.64,146.71,795.06,147.55Zm21.23-1.08a27.71,27.71,0,0,0-1.94-2.09l10-10.34a43.27,43.27,0,0,1,3,3.2Zm-17.65-3.21-9.8-10.58a27.43,27.43,0,0,1,3.81-3l7.83,12.1A14.57,14.57,0,0,0,798.64,143.26Zm13.68-.62a14,14,0,0,0-2-1.31l6.66-12.77a28.51,28.51,0,0,1,4,2.54Zm-10-1.8-5.23-13.44a24.55,24.55,0,0,1,4.84-1.33l2.45,14.21A10.59,10.59,0,0,0,802.37,140.84Zm5.84-.35a10.38,10.38,0,0,0-2.07-.4l1.28-14.37a24.73,24.73,0,0,1,5,1Z"/><path class="cls-1" d="M807.44,20V33.8h-5.72V28h-6.44V42.91h5.3v8.37H784.22V42.91H790V28h-6.63V33.8h-5.73V20Z"/><path class="cls-1" d="M830.06,42.81V55.69h-4.29V50.82H812.19v6.24h8.13v3.22h-8.13v5.48h7v8.38H802.87V65.76h4V50.82h-4v-8Z"/></g></g></svg>